<?xml version="1.0" encoding="UTF-8" standalone="no"?>
<svg
   viewBox="0 0 448 512"
   version="1.1"
   id="svg4"
   sodipodi:docname="cv.svg"
   inkscape:export-filename="cv.svg"
   inkscape:export-xdpi="96"
   inkscape:export-ydpi="96"
   inkscape:version="1.2.1 (9c6d41e410, 2022-07-14)"
   xmlns:inkscape="http://www.inkscape.org/namespaces/inkscape"
   xmlns:sodipodi="http://sodipodi.sourceforge.net/DTD/sodipodi-0.dtd"
   xmlns="http://www.w3.org/2000/svg"
   xmlns:svg="http://www.w3.org/2000/svg">
  <defs
     id="defs8" />
  <sodipodi:namedview
     id="namedview6"
     pagecolor="#ffffff"
     bordercolor="#000000"
     borderopacity="0.25"
     inkscape:showpageshadow="2"
     inkscape:pageopacity="0.0"
     inkscape:pagecheckerboard="0"
     inkscape:deskcolor="#d1d1d1"
     showgrid="false"
     inkscape:zoom="1.0585938"
     inkscape:cx="123.74908"
     inkscape:cy="308.90037"
     inkscape:window-width="1920"
     inkscape:window-height="1009"
     inkscape:window-x="-8"
     inkscape:window-y="1"
     inkscape:window-maximized="1"
     inkscape:current-layer="svg4" />
  <!--! Font Awesome Pro 6.2.0 by @fontawesome - https://fontawesome.com License - https://fontawesome.com/license (Commercial License) Copyright 2022 Fonticons, Inc. -->
  <path
     id="path2"
     d="M 31.900391 32 C 14.300442 32 -1.6579314e-14 46.500835 0 64.300781 L 0 447.69922 C 0 465.49916 14.300442 480 31.900391 480 L 416 480 C 433.59994 480 448 465.49916 448 447.69922 L 448 64.300781 C 448 46.500835 433.59994 32 416 32 L 31.900391 32 z M 128.32812 114.03906 C 156.7866 114.03906 182.43501 124.3298 200.00195 143.25 C 201.40731 144.90967 202.10937 146.90098 202.10938 148.89258 C 202.10937 151.21612 201.05553 153.53965 199.29883 155.53125 L 183.83984 170.80078 C 182.08317 172.46045 180.32678 173.45508 178.21875 173.45508 C 176.11072 173.45508 173.65123 172.46035 171.89453 170.46875 C 161.00302 159.183 146.24663 152.875 128.67969 152.875 C 102.32928 152.875 80.195312 175.11525 80.195312 201.66992 L 80.195312 272.37305 C 80.195312 298.92772 102.32928 321.16602 128.67969 321.16602 C 146.24663 321.16602 161.00302 314.85997 171.89453 303.57422 C 173.65123 301.58262 175.75914 300.58594 177.86719 300.58594 C 179.97522 300.58594 182.08317 301.58252 183.83984 303.24219 L 199.29883 318.51172 C 201.40686 320.50332 202.46094 322.82685 202.46094 325.15039 C 202.46094 327.14199 201.75886 328.80127 200.35352 330.46094 C 182.78656 349.38115 157.13793 360.00391 128.32812 360.00391 C 78.086698 360.00391 37.332031 320.83535 37.332031 272.37305 L 37.332031 201.66992 C 37.332031 153.20762 78.086698 114.03906 128.32812 114.03906 z M 216.72852 118.35547 L 241.32227 118.35547 C 246.24101 118.35547 250.80949 121.34121 252.21484 125.98828 L 309.13086 299.25977 L 366.04883 125.98828 C 367.45418 121.34121 372.02071 118.35547 376.93945 118.35547 L 402.23633 118.35547 C 407.15508 118.35547 410.66797 121.67314 410.66797 125.98828 C 410.66797 126.65214 410.6697 127.64873 410.31836 128.64453 L 334.07617 350.04492 C 332.67081 354.36006 328.10429 357.34766 323.18555 357.34766 L 295.78125 357.34766 C 290.8625 357.34766 286.29402 354.36006 284.88867 350.04492 L 208.64844 128.64453 C 208.2971 127.64873 208.29688 126.65214 208.29688 125.98828 C 208.29687 121.67314 211.80977 118.35547 216.72852 118.35547 z M 81.035156 396.32617 L 366.96484 396.32617 L 366.96484 420.00195 L 81.035156 420.00195 L 81.035156 396.32617 z " />
  <g
     aria-label="CV"
     transform="matrix(0.96127415,0,0,0.90818052,13.111208,23.064266)"
     id="text412"
     style="font-weight:bold;font-size:365.494px;font-family:'Miriam Libre';-inkscape-font-specification:'Miriam Libre, Bold';fill:#ffffff;stroke-width:5.71083" />
</svg>
