<?xml version="1.0" encoding="utf-8"?>
<!-- Generator: Adobe Illustrator 27.5.0, SVG Export Plug-In . SVG Version: 6.00 Build 0)  -->
<svg version="1.1" id="Capa_1" xmlns="http://www.w3.org/2000/svg" xmlns:xlink="http://www.w3.org/1999/xlink" x="0px" y="0px"
	 viewBox="0 0 473.3 164.3" style="enable-background:new 0 0 473.3 164.3;" xml:space="preserve">
<style type="text/css">
	.st0{fill:#FFFFFF;}
	.st1{fill:#920AF2;}
</style>
<g>
	<g>
		<path class="st0" d="M22.8,115.1c-7.9,0-16.6-3.1-22.8-8.1l4.1-5.8c6,4.5,12.5,7,19,7c6.6,0,11.4-3.4,11.4-8.7v-0.2
			c0-5.5-6.5-7.7-13.7-9.7c-8.6-2.4-18.2-5.4-18.2-15.5v-0.2c0-9.5,7.9-15.7,18.7-15.7c6.7,0,14.1,2.3,19.8,6.1l-3.7,6.2
			C32.3,67.1,26.5,65,21.2,65c-6.5,0-10.6,3.4-10.6,8v0.2c0,5.2,6.8,7.2,14.1,9.5c8.5,2.6,17.6,5.8,17.6,15.7v0.2
			C42.3,109.1,33.7,115.1,22.8,115.1z"/>
		<path class="st0" d="M52.4,47.1v-9h9.4v9H52.4z M52.9,114v-55h8.2v55H52.9z"/>
		<path class="st0" d="M137.8,57.9c12.7,0,20.4,8.5,20.4,22.1v34H150V81.9c0-10.6-5.3-16.6-14.2-16.6c-8.3,0-15.2,6.2-15.2,17V114
			h-8.1V81.7c0-10.3-5.4-16.4-14.1-16.4S83,72.6,83,82.7V114h-8.2v-55H83v9.2c3.6-5.4,8.5-10.4,17.8-10.4c8.9,0,14.7,4.8,17.6,11
			C122.4,62.8,128.2,57.9,137.8,57.9z"/>
		<path class="st0" d="M195.7,115.3c-16.5,0-28.5-13-28.5-28.6c0-15.6,12.1-28.8,28.7-28.8c16.5,0,28.6,13,28.6,28.6
			C224.5,102.1,212.3,115.3,195.7,115.3z M195.7,65.1c-11.9,0-20.1,9.5-20.1,21.4c0,11.9,8.7,21.5,20.3,21.5
			c11.9,0,20.2-9.5,20.2-21.3C216.1,74.7,207.3,65.1,195.7,65.1z"/>
		<path class="st0" d="M242.2,114H234v-55h8.2v9.6c3.6-6,9.4-10.7,18.8-10.7c13.3,0,21,8.9,21,22V114h-8.2V81.9
			c0-10.2-5.5-16.6-15.2-16.6c-9.5,0-16.5,6.9-16.5,17.2V114z"/>
		<path class="st0" d="M288.3,85.6v-0.2c0-18.7,11.7-30.1,25.3-30.1c8.7,0,13.8,3.9,17.6,8.3V36.4h20.2V114h-20.2v-7.7
			c-3.9,4.8-8.9,8.9-17.5,8.9C300.1,115.3,288.3,104,288.3,85.6z M331.6,85.3v-0.2c0-7.5-5.2-13-11.7-13c-6.5,0-11.8,5.3-11.8,13
			v0.2c0,7.7,5.3,13.1,11.8,13.1C326.4,98.4,331.6,93,331.6,85.3z"/>
		<path class="st0" d="M354.7,85.6v-0.2c0-16.8,12-30.1,29-30.1c19.9,0,29,14.6,29,31.5c0,1.3,0,2.8-0.1,4.1h-38.5
			c1.6,6.3,6.2,9.5,12.4,9.5c4.8,0,8.6-1.8,12.8-5.8l11.2,9.2c-5.5,7-13.5,11.7-25,11.7C367.4,115.4,354.7,103.4,354.7,85.6z
			 M393.8,80.6c-0.7-6.4-4.5-10.4-10-10.4c-5.3,0-8.9,4.1-10,10.4H393.8z"/>
		<path class="st0" d="M409,56.5h21.3l11.1,33.6l11.1-33.6h20.9l-23,57.9h-18.4L409,56.5z"/>
	</g>
	<polygon class="st1" points="315.4,12.1 414.8,12.1 414.8,44 426.9,44 426.9,0 303.3,0 303.3,44 315.4,44 	"/>
	<polygon class="st1" points="414.8,152.2 315.4,152.2 315.4,126.1 303.3,126.1 303.3,164.3 426.9,164.3 426.9,120.9 414.8,120.9 	
		"/>
</g>
</svg>
